<?xml version="1.0" encoding="UTF-8" standalone="no"?>
<!-- Created with Inkscape (http://www.inkscape.org/) -->

<svg
   xmlns:dc="http://purl.org/dc/elements/1.1/"
   xmlns:cc="http://creativecommons.org/ns#"
   xmlns:rdf="http://www.w3.org/1999/02/22-rdf-syntax-ns#"
   xmlns:svg="http://www.w3.org/2000/svg"
   xmlns="http://www.w3.org/2000/svg"
   xmlns:sodipodi="http://sodipodi.sourceforge.net/DTD/sodipodi-0.dtd"
   xmlns:inkscape="http://www.inkscape.org/namespaces/inkscape"
   width="63.688915mm"
   height="66.996292mm"
   viewBox="0 0 63.688915 66.996292"
   version="1.1"
   id="svg8"
   inkscape:version="0.92.4 (5da689c313, 2019-01-14)"
   sodipodi:docname="pdf-git-logo.svg"
   inkscape:export-xdpi="108.633"
   inkscape:export-ydpi="108.633">
  <defs
     id="defs2">
    <marker
       inkscape:stockid="DotM"
       orient="auto"
       refY="0.0"
       refX="0.0"
       id="marker3981"
       style="overflow:visible"
       inkscape:isstock="true">
      <path
         id="path3979"
         d="M -2.5,-1.0 C -2.5,1.7600000 -4.7400000,4.0 -7.5,4.0 C -10.260000,4.0 -12.5,1.7600000 -12.5,-1.0 C -12.5,-3.7600000 -10.260000,-6.0 -7.5,-6.0 C -4.7400000,-6.0 -2.5,-3.7600000 -2.5,-1.0 z "
         style="fill-rule:evenodd;stroke:#b2b2b2;stroke-width:1pt;stroke-opacity:1;fill:#b2b2b2;fill-opacity:1"
         transform="scale(0.4) translate(7.4, 1)" />
    </marker>
    <marker
       inkscape:stockid="DotM"
       orient="auto"
       refY="0.0"
       refX="0.0"
       id="marker3920"
       style="overflow:visible"
       inkscape:isstock="true">
      <path
         id="path3918"
         d="M -2.5,-1.0 C -2.5,1.7600000 -4.7400000,4.0 -7.5,4.0 C -10.260000,4.0 -12.5,1.7600000 -12.5,-1.0 C -12.5,-3.7600000 -10.260000,-6.0 -7.5,-6.0 C -4.7400000,-6.0 -2.5,-3.7600000 -2.5,-1.0 z "
         style="fill-rule:evenodd;stroke:#b2b2b2;stroke-width:1pt;stroke-opacity:1;fill:#b2b2b2;fill-opacity:1"
         transform="scale(0.4) translate(7.4, 1)" />
    </marker>
    <marker
       inkscape:stockid="DotM"
       orient="auto"
       refY="0.0"
       refX="0.0"
       id="marker3865"
       style="overflow:visible"
       inkscape:isstock="true">
      <path
         id="path3863"
         d="M -2.5,-1.0 C -2.5,1.7600000 -4.7400000,4.0 -7.5,4.0 C -10.260000,4.0 -12.5,1.7600000 -12.5,-1.0 C -12.5,-3.7600000 -10.260000,-6.0 -7.5,-6.0 C -4.7400000,-6.0 -2.5,-3.7600000 -2.5,-1.0 z "
         style="fill-rule:evenodd;stroke:#b2b2b2;stroke-width:1pt;stroke-opacity:1;fill:#b2b2b2;fill-opacity:1"
         transform="scale(0.4) translate(7.4, 1)" />
    </marker>
    <marker
       inkscape:isstock="true"
       style="overflow:visible"
       id="marker2310"
       refX="0.0"
       refY="0.0"
       orient="auto"
       inkscape:stockid="DotM"
       inkscape:collect="always">
      <path
         transform="scale(0.4) translate(7.4, 1)"
         style="fill-rule:evenodd;stroke:#d15353;stroke-width:1pt;stroke-opacity:1;fill:#d15353;fill-opacity:1"
         d="M -2.5,-1.0 C -2.5,1.7600000 -4.7400000,4.0 -7.5,4.0 C -10.260000,4.0 -12.5,1.7600000 -12.5,-1.0 C -12.5,-3.7600000 -10.260000,-6.0 -7.5,-6.0 C -4.7400000,-6.0 -2.5,-3.7600000 -2.5,-1.0 z "
         id="path2308" />
    </marker>
    <marker
       inkscape:isstock="true"
       style="overflow:visible"
       id="marker2261"
       refX="0.0"
       refY="0.0"
       orient="auto"
       inkscape:stockid="DotM"
       inkscape:collect="always">
      <path
         transform="scale(0.4) translate(7.4, 1)"
         style="fill-rule:evenodd;stroke:#d15353;stroke-width:1pt;stroke-opacity:1;fill:#d15353;fill-opacity:1"
         d="M -2.5,-1.0 C -2.5,1.7600000 -4.7400000,4.0 -7.5,4.0 C -10.260000,4.0 -12.5,1.7600000 -12.5,-1.0 C -12.5,-3.7600000 -10.260000,-6.0 -7.5,-6.0 C -4.7400000,-6.0 -2.5,-3.7600000 -2.5,-1.0 z "
         id="path2259" />
    </marker>
    <marker
       inkscape:isstock="true"
       style="overflow:visible"
       id="marker2218"
       refX="0.0"
       refY="0.0"
       orient="auto"
       inkscape:stockid="DotM"
       inkscape:collect="always">
      <path
         transform="scale(0.4) translate(7.4, 1)"
         style="fill-rule:evenodd;stroke:#d15353;stroke-width:1pt;stroke-opacity:1;fill:#d15353;fill-opacity:1"
         d="M -2.5,-1.0 C -2.5,1.7600000 -4.7400000,4.0 -7.5,4.0 C -10.260000,4.0 -12.5,1.7600000 -12.5,-1.0 C -12.5,-3.7600000 -10.260000,-6.0 -7.5,-6.0 C -4.7400000,-6.0 -2.5,-3.7600000 -2.5,-1.0 z "
         id="path2216" />
    </marker>
    <marker
       inkscape:stockid="Legs"
       orient="auto"
       refY="0.0"
       refX="0.0"
       id="Legs"
       style="overflow:visible"
       inkscape:isstock="true">
      <g
         id="g1054"
         transform="scale(-0.7)"
         style="stroke:#000000;stroke-opacity:1;fill:#000000;fill-opacity:1">
        <g
           id="g1048"
           transform="matrix(0,-1.000000,-1.000000,0,20.70862,21.31391)"
           style="stroke:#000000;stroke-opacity:1;fill:#000000;fill-opacity:1">
          <path
             id="path1044"
             d="M 21.221250,20.675360 C 14.311099,25.396517 18.766725,27.282204 15.380179,34.118595"
             style="fill:#000000;fill-opacity:1;fill-rule:evenodd;stroke:#000000;stroke-width:1pt;stroke-opacity:1" />
          <path
             id="path1046"
             d="M 21.398110,20.548120 C 20.037601,28.895644 24.934182,29.318060 25.903151,34.373078"
             style="fill:#000000;fill-opacity:1;fill-rule:evenodd;stroke:#000000;stroke-width:1pt;stroke-opacity:1" />
        </g>
        <path
           id="path1050"
           d="M -14.090070,-6.7318716 L -15.012238,-2.6884886 L -11.049487,-3.9115586 L -14.090070,-6.7318716 z "
           style="fill:#000000;fill-rule:evenodd;stroke-width:1pt;stroke:#000000;stroke-opacity:1;fill-opacity:1" />
        <path
           id="path1052"
           d="M -15.215679,4.5567534 L -13.341552,8.2563664 L -11.074678,4.7835114 L -15.215679,4.5567534 z "
           style="fill:#000000;fill-rule:evenodd;stroke-width:1pt;stroke:#000000;stroke-opacity:1;fill-opacity:1" />
      </g>
    </marker>
  </defs>
  <sodipodi:namedview
     id="base"
     pagecolor="#ffffff"
     bordercolor="#666666"
     borderopacity="1.0"
     inkscape:pageopacity="0.0"
     inkscape:pageshadow="2"
     inkscape:zoom="2.8"
     inkscape:cx="298.98981"
     inkscape:cy="128.08368"
     inkscape:document-units="mm"
     inkscape:current-layer="layer1"
     showgrid="false"
     showguides="true"
     inkscape:guide-bbox="true"
     inkscape:window-width="3840"
     inkscape:window-height="2080"
     inkscape:window-x="-11"
     inkscape:window-y="35"
     inkscape:window-maximized="1"
     inkscape:snap-bbox="true"
     inkscape:bbox-paths="true"
     inkscape:bbox-nodes="true"
     inkscape:snap-bbox-edge-midpoints="true"
     inkscape:snap-bbox-midpoints="true"
     inkscape:object-paths="true"
     inkscape:snap-intersection-paths="true"
     fit-margin-top="0"
     fit-margin-left="0"
     fit-margin-right="0"
     fit-margin-bottom="0">
    <sodipodi:guide
       position="18.993204,66.996291"
       orientation="0,1"
       id="guide4527"
       inkscape:locked="false" />
    <sodipodi:guide
       position="63.688895,51.452011"
       orientation="1,0"
       id="guide4529"
       inkscape:locked="false" />
    <sodipodi:guide
       position="11.622684,60.428941"
       orientation="1,0"
       id="guide4541"
       inkscape:locked="false" />
    <sodipodi:guide
       position="86.367526,20.45796"
       orientation="1,0"
       id="guide4554"
       inkscape:locked="false" />
    <sodipodi:guide
       position="87.481746,-38.787931"
       orientation="0,1"
       id="guide4560"
       inkscape:locked="false" />
    <sodipodi:guide
       position="95.742066,-32.883921"
       orientation="0,1"
       id="guide4566"
       inkscape:locked="false" />
    <sodipodi:guide
       position="90.483976,-32.265141"
       orientation="0,1"
       id="guide4568"
       inkscape:locked="false" />
    <sodipodi:guide
       position="95.123286,-32.883921"
       orientation="1,0"
       id="guide4570"
       inkscape:locked="false" />
    <sodipodi:guide
       position="77.611726,-32.883921"
       orientation="1,0"
       id="guide4572"
       inkscape:locked="false" />
    <sodipodi:guide
       position="81.632256,-32.883921"
       orientation="1,0"
       id="guide4574"
       inkscape:locked="false" />
    <sodipodi:guide
       position="89.874866,-13.370901"
       orientation="1,0"
       id="guide4576"
       inkscape:locked="false" />
    <sodipodi:guide
       position="82.850476,-13.370901"
       orientation="1,0"
       id="guide4578"
       inkscape:locked="false" />
    <sodipodi:guide
       position="82.251036,-13.989681"
       orientation="0,1"
       id="guide4580"
       inkscape:locked="false" />
    <sodipodi:guide
       position="91.102756,-32.883921"
       orientation="1,0"
       id="guide4586"
       inkscape:locked="false" />
    <sodipodi:guide
       position="37.655785,33.49815"
       orientation="1,0"
       id="guide4590"
       inkscape:locked="false" />
  </sodipodi:namedview>
  <metadata
     id="metadata5">
    <rdf:RDF>
      <cc:Work
         rdf:about="">
        <dc:format>image/svg+xml</dc:format>
        <dc:type
           rdf:resource="http://purl.org/dc/dcmitype/StillImage" />
        <dc:title />
      </cc:Work>
    </rdf:RDF>
  </metadata>
  <g
     inkscape:label="Layer 1"
     inkscape:groupmode="layer"
     id="layer1"
     transform="translate(-822.38171,-85.097081)">
    <path
       style="fill:#dfdfdf;fill-opacity:1;stroke:none;stroke-width:0.26458332;stroke-opacity:1"
       d="m 841.37494,85.09709 23.609,-9e-6 21.08667,20.286069 2e-5,39.33968 c 0,4.08328 -3.28726,7.37054 -7.37054,7.37054 h -37.32515 c -4.08328,0 -7.37054,-3.28726 -7.37054,-7.37054 V 92.467627 c 0,-4.083278 3.28726,-7.370537 7.37054,-7.370537 z"
       id="rect10"
       inkscape:connector-curvature="0"
       sodipodi:nodetypes="sccssssss" />
    <path
       sodipodi:nodetypes="ccccc"
       inkscape:connector-curvature="0"
       id="path4544"
       d="m 886.07057,105.38315 -0.0236,11.52051 -19.03146,-16.50556 c 8.34486,-2.899889 11.73453,1.106 19.05506,4.98505 z"
       style="fill:#b2b2b2;fill-opacity:1;stroke:none;stroke-width:0.26458332;stroke-opacity:1" />
    <path
       style="fill:#828282;fill-opacity:1;stroke:none;stroke-width:0.34475055;stroke-opacity:1"
       d="m 864.9513,97.492632 c 0,4.389178 3.53335,7.922518 7.9225,7.922518 l 13.19681,-0.032 -21.08667,-20.286069 z"
       id="rect4525"
       inkscape:connector-curvature="0"
       sodipodi:nodetypes="ssccs" />
    <g
       id="g1323">
      <path
         sodipodi:nodetypes="cssssccssc"
         inkscape:connector-curvature="0"
         id="rect4539"
         d="m 839.66088,99.604279 h 15.85055 c 2.56514,0 4.63021,2.065071 4.63021,4.630211 v 9.20506 c 0,2.56513 -2.06507,4.63021 -4.63021,4.63021 l -21.50704,0.0709 1e-5,-4.63021 v -9.20506 c 0,-2.56514 3.09135,-4.701081 5.65648,-4.701081 z"
         style="fill:#b2b2b2;fill-opacity:1;stroke:none;stroke-width:0.26458332;stroke-opacity:1" />
      <rect
         ry="4.6302085"
         y="98.373497"
         x="822.38171"
         height="18.331844"
         width="36.710938"
         id="rect4537"
         style="fill:#d15353;fill-opacity:1;stroke:none;stroke-width:0.26458332;stroke-opacity:1" />
      <text
         id="text4548"
         y="112.68295"
         x="826.70874"
         style="font-style:normal;font-variant:normal;font-weight:normal;font-stretch:normal;font-size:14.11111069px;line-height:1.25;font-family:Rubik;-inkscape-font-specification:'Rubik, Normal';font-variant-ligatures:normal;font-variant-caps:normal;font-variant-numeric:normal;font-feature-settings:normal;text-align:start;letter-spacing:0px;word-spacing:0px;writing-mode:lr-tb;text-anchor:start;fill:#ffffff;fill-opacity:1;stroke:none;stroke-width:0.26458332"
         xml:space="preserve"><tspan
           style="font-style:normal;font-variant:normal;font-weight:normal;font-stretch:normal;font-size:14.11111069px;font-family:Rubik;-inkscape-font-specification:'Rubik, Normal';font-variant-ligatures:normal;font-variant-caps:normal;font-variant-numeric:normal;font-feature-settings:normal;text-align:start;writing-mode:lr-tb;text-anchor:start;fill:#ffffff;fill-opacity:1;stroke-width:0.26458332"
           y="112.68295"
           x="826.70874"
           id="tspan4546"
           sodipodi:role="line">PDF</tspan></text>
    </g>
    <path
       style="fill:#b2b2b2;fill-opacity:1;stroke:none;stroke-width:0.26499999;stroke-linecap:round;stroke-linejoin:round;stroke-miterlimit:4;stroke-dasharray:none;stroke-opacity:1"
       d="m 917.50499,138.39276 h 4.02053 c 0.61369,0 0.6188,0.002 0.6188,-0.61878 v -13.64525 c -0.0119,-0.61564 -0.0141,-0.61878 0.59942,-0.61878 h 7.02439 c 0.6085,0.0101 0.60913,0.004 0.60913,0.61878 v 13.64525 c 0.003,0.61878 -0.002,0.61878 0.61876,0.61878 h 4.02053 c 0.56185,0 0.55489,0 -8e-5,0.44234 -2.54682,1.82031 -5.09363,3.64065 -7.64045,5.46097 -1.09684,0.91689 -1.20712,0.73144 -2.23378,-0.002 -2.54609,-1.81979 -5.09218,-3.63959 -7.63826,-5.4594 -0.5518,-0.441 -0.55259,-0.44191 0.001,-0.44191 z"
       id="path4596"
       inkscape:connector-curvature="0"
       sodipodi:nodetypes="cccccccccccccccc" />
    <path
       sodipodi:nodetypes="cccccccccccccccc"
       inkscape:connector-curvature="0"
       id="path4588"
       d="m 916.31539,137.4521 h 4.02053 c 0.61369,0 0.6188,0.002 0.6188,-0.61878 v -13.64525 c -0.0119,-0.61564 -0.0141,-0.61878 0.59942,-0.61878 h 7.02439 c 0.6085,0.0101 0.60913,0.004 0.60913,0.61878 v 13.64525 c 0.003,0.61878 -0.002,0.61878 0.61876,0.61878 h 4.02053 c 0.56185,0 0.55489,0 -8e-5,0.44234 -2.54682,1.82031 -5.09363,3.64065 -7.64045,5.46097 -1.09684,0.91689 -1.20712,0.73144 -2.23378,-0.002 -2.54609,-1.81979 -5.09218,-3.63959 -7.63826,-5.4594 -0.5518,-0.441 -0.55259,-0.44191 10e-4,-0.44191 z"
       style="fill:#d15353;fill-opacity:1;stroke:none;stroke-width:0.26499999;stroke-linecap:round;stroke-linejoin:round;stroke-miterlimit:4;stroke-dasharray:none;stroke-opacity:1" />
    <g
       id="g1317"
       style="stroke-width:1.8;stroke-miterlimit:4;stroke-dasharray:none">
      <path
         id="path3861"
         style="fill:none;stroke:#b2b2b2;stroke-width:1.8;stroke-linecap:butt;stroke-linejoin:miter;stroke-miterlimit:4;stroke-dasharray:none;stroke-opacity:1;marker-start:url(#marker3865);marker-mid:url(#marker3920);marker-end:url(#marker3981)"
         d="m 850.07281,145.9233 18.50841,-17.74279 m 0,-15.9217 v 33.66449"
         inkscape:connector-curvature="0"
         sodipodi:nodetypes="cccc" />
      <path
         sodipodi:nodetypes="cccc"
         inkscape:connector-curvature="0"
         d="m 849.10866,144.97318 18.50841,-17.74279 m 0,-15.9217 v 33.66449"
         style="fill:none;stroke:#d15353;stroke-width:1.8;stroke-linecap:butt;stroke-linejoin:miter;stroke-miterlimit:4;stroke-dasharray:none;stroke-opacity:1;marker-start:url(#marker2218);marker-mid:url(#marker2261);marker-end:url(#marker2310)"
         id="path2214" />
    </g>
  </g>
</svg>
