<?xml version="1.0" encoding="UTF-8" standalone="no"?>
<!-- Created with Inkscape (http://www.inkscape.org/) -->

<svg
   xmlns:dc="http://purl.org/dc/elements/1.1/"
   xmlns:cc="http://creativecommons.org/ns#"
   xmlns:rdf="http://www.w3.org/1999/02/22-rdf-syntax-ns#"
   xmlns:svg="http://www.w3.org/2000/svg"
   xmlns="http://www.w3.org/2000/svg"
   xmlns:xlink="http://www.w3.org/1999/xlink"
   xmlns:sodipodi="http://sodipodi.sourceforge.net/DTD/sodipodi-0.dtd"
   xmlns:inkscape="http://www.inkscape.org/namespaces/inkscape"
   width="193.49442mm"
   height="198.16248mm"
   viewBox="0 0 193.49442 198.16248"
   version="1.1"
   id="svg8"
   inkscape:version="0.92.4 (5da689c313, 2019-01-14)"
   sodipodi:docname="rotor_tip_clearance.svg">
  <sodipodi:namedview
     id="base"
     pagecolor="#ffffff"
     bordercolor="#666666"
     borderopacity="1.0"
     inkscape:pageopacity="0.0"
     inkscape:pageshadow="2"
     inkscape:zoom="1.979899"
     inkscape:cx="387.65936"
     inkscape:cy="353.49245"
     inkscape:document-units="mm"
     inkscape:current-layer="layer1"
     showgrid="false"
     inkscape:window-width="3840"
     inkscape:window-height="2080"
     inkscape:window-x="-11"
     inkscape:window-y="35"
     inkscape:window-maximized="1"
     inkscape:snap-global="false"
     inkscape:object-paths="true"
     inkscape:snap-intersection-paths="true"
     showguides="true"
     inkscape:guide-bbox="true"
     inkscape:snap-bbox="true"
     inkscape:snap-bbox-edge-midpoints="true"
     fit-margin-top="0"
     fit-margin-left="0"
     fit-margin-right="0"
     fit-margin-bottom="0" />
  <defs
     id="defs2">
    <marker
       inkscape:stockid="Arrow2Lstart"
       orient="auto"
       refY="0"
       refX="0"
       id="Arrow2Lstart"
       style="overflow:visible"
       inkscape:isstock="true">
      <path
         id="path1404"
         style="fill:#000000;fill-opacity:1;fill-rule:evenodd;stroke:#000000;stroke-width:0.625;stroke-linejoin:round;stroke-opacity:1"
         d="M 8.7185878,4.0337352 -2.2072895,0.01601326 8.7185884,-4.0017078 c -1.7454984,2.3720609 -1.7354408,5.6174519 -6e-7,8.035443 z"
         transform="matrix(1.1,0,0,1.1,1.1,0)"
         inkscape:connector-curvature="0" />
    </marker>
    <marker
       inkscape:stockid="Arrow2Lend"
       orient="auto"
       refY="0"
       refX="0"
       id="Arrow2Lend"
       style="overflow:visible"
       inkscape:isstock="true">
      <path
         id="path1407"
         style="fill:#000000;fill-opacity:1;fill-rule:evenodd;stroke:#000000;stroke-width:0.625;stroke-linejoin:round;stroke-opacity:1"
         d="M 8.7185878,4.0337352 -2.2072895,0.01601326 8.7185884,-4.0017078 c -1.7454984,2.3720609 -1.7354408,5.6174519 -6e-7,8.035443 z"
         transform="matrix(-1.1,0,0,-1.1,-1.1,0)"
         inkscape:connector-curvature="0" />
    </marker>
    <marker
       inkscape:stockid="Arrow2Lend"
       orient="auto"
       refY="0"
       refX="0"
       id="marker1590"
       style="overflow:visible"
       inkscape:isstock="true">
      <path
         id="path1588"
         style="fill:#000000;fill-opacity:1;fill-rule:evenodd;stroke:#000000;stroke-width:0.625;stroke-linejoin:round;stroke-opacity:1"
         d="M 8.7185878,4.0337352 -2.2072895,0.01601326 8.7185884,-4.0017078 c -1.7454984,2.3720609 -1.7354408,5.6174519 -6e-7,8.035443 z"
         transform="matrix(-1.1,0,0,-1.1,-1.1,0)"
         inkscape:connector-curvature="0" />
    </marker>
    <linearGradient
       inkscape:collect="always"
       xlink:href="#linearGradient836"
       id="linearGradient838"
       x1="706.06451"
       y1="234.5041"
       x2="506.38708"
       y2="234.5041"
       gradientUnits="userSpaceOnUse"
       gradientTransform="matrix(0.87813182,0.47841876,-0.32948224,0.60476067,-358.57707,-294.35935)" />
    <linearGradient
       inkscape:collect="always"
       id="linearGradient836">
      <stop
         style="stop-color:#a6dff7;stop-opacity:0.47058824"
         offset="0"
         id="stop832" />
      <stop
         style="stop-color:#d18a97;stop-opacity:0.47058824"
         offset="1"
         id="stop834" />
    </linearGradient>
  </defs>
  <metadata
     id="metadata5">
    <rdf:RDF>
      <cc:Work
         rdf:about="">
        <dc:format>image/svg+xml</dc:format>
        <dc:type
           rdf:resource="http://purl.org/dc/dcmitype/StillImage" />
        <dc:title />
      </cc:Work>
    </rdf:RDF>
  </metadata>
  <g
     inkscape:label="Layer 1"
     inkscape:groupmode="layer"
     id="layer1"
     transform="translate(-3.396301,-46.175077)">
    <g
       id="g938"
       transform="translate(-246.4225,-140.04923)">
      <path
         style="fill:#e9e9e9;fill-opacity:1;stroke:none;stroke-width:0.28276673px;stroke-linecap:butt;stroke-linejoin:miter;stroke-opacity:1"
         d="m 250.04611,294.95047 c 26.01676,-13.27929 86.69114,-11.95529 103.0884,-5.55398 0,0 35.38454,36.79962 57.23158,49.33136 6.70419,3.84561 15.65564,3.01006 21.93402,7.51749 3.97047,2.85052 8.94,11.62272 8.94,11.62272 -17.20264,-1.82172 -42.72179,-0.97096 -68.73854,12.30835 0,0 -9.77375,-9.90911 -15.85674,-13.04759 -6.00391,-3.09769 -13.31862,-2.71711 -19.56491,-5.29128 -8.12588,-3.34877 -16.20664,-7.36588 -22.91178,-13.04789 -5.25063,-4.44945 -7.4234,-12.02037 -13.02275,-16.02211 -7.40163,-5.28978 -18.45478,-3.81287 -25.61251,-9.42829 -4.21846,-3.30948 -4.68098,-10.14762 -8.98987,-13.33848 -4.62162,-3.42245 -16.4969,-5.0503 -16.4969,-5.0503 z"
         id="path934"
         inkscape:connector-curvature="0"
         sodipodi:nodetypes="ccaaccaaaaaac" />
      <path
         sodipodi:nodetypes="cccc"
         inkscape:connector-curvature="0"
         id="path930"
         d="m 441.24011,357.86806 c -17.20264,-1.82172 -42.72179,-0.97096 -68.73854,12.30835 M 250.04611,294.95047 c 26.01676,-13.27929 86.69114,-11.95529 103.0884,-5.55398"
         style="fill:none;fill-opacity:1;stroke:#000000;stroke-width:1;stroke-linecap:butt;stroke-linejoin:miter;stroke-miterlimit:4;stroke-dasharray:none;stroke-opacity:1" />
    </g>
    <path
       style="fill:#c4c4c4;fill-opacity:1;stroke:#000000;stroke-width:1.5;stroke-linecap:round;stroke-linejoin:round;stroke-miterlimit:4;stroke-dasharray:none;stroke-opacity:1"
       d="m 51.048486,55.388338 c -1.99108,46.828242 0.4707,57.384992 -8.28652,98.413692 36.10721,16.32571 78.402364,36.23983 91.973144,56.11596 3.15484,4.62065 13.12432,7.84412 16.94868,3.52313 1.09523,-1.23745 1.55727,-2.72068 1.56122,-4.33978 -0.2971,-41.14479 -1.42683,-42.86834 8.28373,-98.64373 C 124.73184,92.100938 118.22639,73.493928 51.048486,55.388338 Z"
       id="path908"
       inkscape:connector-curvature="0"
       sodipodi:nodetypes="ccccccc" />
    <path
       inkscape:transform-center-y="4.6240526"
       inkscape:transform-center-x="-5.7062378"
       sodipodi:nodetypes="ccccccc"
       inkscape:connector-curvature="0"
       id="path1741"
       d="m 18.592116,71.825828 -11.2837602,15.75018 9.8206202,26.031112 174.876884,99.35078 -5.76821,-26.27272 7.37686,-19.66377 z"
       style="opacity:1;fill:url(#linearGradient838);fill-opacity:1;stroke:#000000;stroke-width:0.82987356;stroke-linecap:round;stroke-linejoin:round;stroke-miterlimit:4;stroke-dasharray:none;stroke-opacity:1" />
    <path
       style="fill:#838383;fill-opacity:1;stroke:#000000;stroke-width:1.5;stroke-linecap:round;stroke-linejoin:round;stroke-miterlimit:4;stroke-dasharray:none;stroke-opacity:1"
       d="m 51.048486,55.922878 c 36.10721,16.32571 78.402364,36.23983 91.973144,56.115962 3.15484,4.62065 13.12432,7.84412 16.94868,3.52313 4.56753,-5.16067 -1.8774,-14.59592 -6.63587,-19.581082 C 128.05174,69.493728 51.048486,55.922878 51.048486,55.922878 Z"
       id="path910"
       inkscape:connector-curvature="0" />
    <path
       style="opacity:1;fill:#bbd698;fill-opacity:0.78039216;stroke:#000000;stroke-width:0.35826853;stroke-linecap:round;stroke-linejoin:round;stroke-miterlimit:4;stroke-dasharray:none;stroke-opacity:1"
       d="m 165.4398,115.76555 8.29697,1.22042 0.60524,-3.75273 c 0,0 -39.40457,-26.928915 -60.76624,-37.378971 C 93.347809,65.958823 50.313916,52.153008 50.313916,52.153008 l -3.74696,1.69663 -6.82849,0.0142 c 0,0 47.775031,15.887386 70.207604,27.120504 19.52027,9.774782 55.49373,34.781208 55.49373,34.781208 z"
       id="path956"
       inkscape:connector-curvature="0"
       sodipodi:nodetypes="cccacccac"
       inkscape:transform-center-x="4.843686"
       inkscape:transform-center-y="-3.0435302" />
    <path
       style="opacity:1;fill:#e7c4b6;fill-opacity:1;stroke:#e7c4b6;stroke-width:0.35714287;stroke-linecap:round;stroke-linejoin:round;stroke-miterlimit:4;stroke-dasharray:none;stroke-dashoffset:0;stroke-opacity:1;paint-order:normal"
       d="m 120.17491,69.893548 c -4.10393,-4.66307 -4.81486,-5.51323 -4.79002,-5.72805 0.0602,-0.5205 -0.18576,-2.34334 -0.41333,-3.06375 -0.28451,-0.90061 -0.98581,-1.98913 -1.67574,-2.601 -0.2703,-0.2397 -0.98044,-0.75783 -1.57811,-1.15139 -0.59769,-0.39357 -1.12921,-0.75703 -1.18118,-0.80769 -0.15761,-0.15362 2.53371,-0.003 3.77976,0.2117 7.51716,1.29454 15.49426,5.54748 18.90472,10.0789 0.98578,1.30981 1.58435,2.50494 1.98173,3.95681 0.17166,0.6273 0.30136,3.69592 0.16451,3.89322 -0.0551,0.0795 -1.40745,0.18492 -4.5172,0.35215 -2.4412,0.13127 -4.75745,0.26032 -5.14723,0.28678 l -0.70871,0.0481 z"
       id="path1954"
       inkscape:connector-curvature="0" />
    <path
       sodipodi:nodetypes="ccccccccccccccccc"
       inkscape:connector-curvature="0"
       id="path1241"
       d="m 89.135386,89.937818 -0.1461,-23.84283 c -0.10238,-7.57643 -0.13365,-11.1244 -0.0998,-11.36353 0.11594,-0.81919 0.57225,-1.71894 1.18408,-2.32964 0.43188,-0.43105 1.60697,-1.12726 2.35302,-1.39161 3.13409,-1.11056 7.627564,-0.97897 13.335954,0.47499 1.13673,0.28953 4.21403,1.28428 5.48246,1.77425 2.65101,1.02396 5.47958,2.31372 7.99432,3.65176 1.14847,0.61107 3.10276,1.70179 3.07326,1.7156 -0.0136,0.006 -0.40971,-0.14479 -0.8784,-0.33526 -1.23683,-0.50263 -4.13528,-1.401 -5.42678,-1.68485 -4.62891,-1.01734 -7.56708,-0.78672 -9.65224,0.6937 -1.01595,0.7213 -1.78223,1.79418 -2.11568,2.95298 l -0.13934,0.48424 -0.005,12.61163 -0.005,25.36939 -8.302234,-9.63739"
       style="opacity:0.88500001;fill:#eca88c;fill-opacity:1;stroke:#eca88c;stroke-width:0.40000001;stroke-linecap:round;stroke-linejoin:bevel;stroke-miterlimit:4;stroke-dasharray:none;stroke-dashoffset:0;stroke-opacity:1;paint-order:normal" />
    <path
       sodipodi:nodetypes="ccccssscccsc"
       inkscape:connector-curvature="0"
       id="path1243"
       d="m 109.74075,56.306258 c 2.92599,1.65488 5.67728,2.62139 5.36021,8.2051 l 9.8062,11.09708 10.7134,-0.58608 0.0593,-2.03893 c 0.2691,-9.25209 -14.95913,-16.16216 -23.58781,-16.74407 -6.04283,-0.40753 -7.76515,3.44464 -7.76616,5.077 l -0.0151,37.68929 -8.522884,-9.87715 -6.86033,0.83482 -0.28935,-34.67325 c -0.0587,-7.03502 16.398364,-8.55054 38.593194,6.12201"
       style="fill:none;stroke:#000000;stroke-width:0.40000001;stroke-linecap:round;stroke-linejoin:round;stroke-miterlimit:4;stroke-dasharray:none;stroke-opacity:1" />
    <path
       sodipodi:nodetypes="cc"
       inkscape:connector-curvature="0"
       id="path1380"
       d="m 177.52427,228.41099 c -9.39053,0.90043 -19.40799,2.97227 -29.70139,6.77812"
       style="fill:none;fill-opacity:1;stroke:#000000;stroke-width:1;stroke-linecap:butt;stroke-linejoin:miter;stroke-miterlimit:4;stroke-dasharray:none;stroke-opacity:1;marker-end:url(#marker1590)" />
  </g>
  <g
     inkscape:groupmode="layer"
     id="layer2"
     inkscape:label="Layer 2"
     style="display:inline;opacity:0.14800002"
     transform="translate(-3.396301,-46.175077)" />
</svg>
