<?xml version="1.0" encoding="UTF-8" standalone="no"?>
<!-- Created with Inkscape (http://www.inkscape.org/) -->

<svg
   xmlns:dc="http://purl.org/dc/elements/1.1/"
   xmlns:cc="http://creativecommons.org/ns#"
   xmlns:rdf="http://www.w3.org/1999/02/22-rdf-syntax-ns#"
   xmlns:svg="http://www.w3.org/2000/svg"
   xmlns="http://www.w3.org/2000/svg"
   xmlns:xlink="http://www.w3.org/1999/xlink"
   xmlns:sodipodi="http://sodipodi.sourceforge.net/DTD/sodipodi-0.dtd"
   xmlns:inkscape="http://www.inkscape.org/namespaces/inkscape"
   width="267.8147mm"
   height="97.370346mm"
   viewBox="0 0 267.8147 97.370345"
   version="1.1"
   id="svg8"
   inkscape:version="0.92.3 (2405546, 2018-03-11)"
   sodipodi:docname="stage_dimensions_compressor_pres.svg">
  <defs
     id="defs2">
    <marker
       inkscape:isstock="true"
       style="overflow:visible"
       id="marker10557"
       refX="0"
       refY="0"
       orient="auto"
       inkscape:stockid="Arrow2Lend">
      <path
         inkscape:connector-curvature="0"
         transform="matrix(-1.1,0,0,-1.1,-1.1,0)"
         d="M 8.7185878,4.0337352 -2.2072895,0.01601326 8.7185884,-4.0017078 c -1.7454984,2.3720609 -1.7354408,5.6174519 -6e-7,8.035443 z"
         style="fill:#000000;fill-opacity:1;fill-rule:evenodd;stroke:#000000;stroke-width:0.625;stroke-linejoin:round;stroke-opacity:1"
         id="path10555" />
    </marker>
    <marker
       inkscape:stockid="Arrow2Lend"
       orient="auto"
       refY="0"
       refX="0"
       id="marker9629"
       style="overflow:visible"
       inkscape:isstock="true">
      <path
         id="path9627"
         style="fill:#000000;fill-opacity:1;fill-rule:evenodd;stroke:#000000;stroke-width:0.625;stroke-linejoin:round;stroke-opacity:1"
         d="M 8.7185878,4.0337352 -2.2072895,0.01601326 8.7185884,-4.0017078 c -1.7454984,2.3720609 -1.7354408,5.6174519 -6e-7,8.035443 z"
         transform="matrix(-1.1,0,0,-1.1,-1.1,0)"
         inkscape:connector-curvature="0" />
    </marker>
    <marker
       inkscape:stockid="Arrow2Lend"
       orient="auto"
       refY="0"
       refX="0"
       id="marker8917"
       style="overflow:visible"
       inkscape:isstock="true">
      <path
         id="path8915"
         style="fill:#000000;fill-opacity:1;fill-rule:evenodd;stroke:#000000;stroke-width:0.625;stroke-linejoin:round;stroke-opacity:1"
         d="M 8.7185878,4.0337352 -2.2072895,0.01601326 8.7185884,-4.0017078 c -1.7454984,2.3720609 -1.7354408,5.6174519 -6e-7,8.035443 z"
         transform="matrix(-1.1,0,0,-1.1,-1.1,0)"
         inkscape:connector-curvature="0" />
    </marker>
    <marker
       inkscape:stockid="Arrow2Lend"
       orient="auto"
       refY="0"
       refX="0"
       id="marker8655"
       style="overflow:visible"
       inkscape:isstock="true">
      <path
         id="path8653"
         style="fill:#000000;fill-opacity:1;fill-rule:evenodd;stroke:#000000;stroke-width:0.625;stroke-linejoin:round;stroke-opacity:1"
         d="M 8.7185878,4.0337352 -2.2072895,0.01601326 8.7185884,-4.0017078 c -1.7454984,2.3720609 -1.7354408,5.6174519 -6e-7,8.035443 z"
         transform="matrix(-1.1,0,0,-1.1,-1.1,0)"
         inkscape:connector-curvature="0" />
    </marker>
    <marker
       inkscape:stockid="Arrow2Lstart"
       orient="auto"
       refY="0"
       refX="0"
       id="marker8453"
       style="overflow:visible"
       inkscape:isstock="true">
      <path
         inkscape:connector-curvature="0"
         id="path8451"
         style="fill:#000000;fill-opacity:1;fill-rule:evenodd;stroke:#000000;stroke-width:0.625;stroke-linejoin:round;stroke-opacity:1"
         d="M 8.7185878,4.0337352 -2.2072895,0.01601326 8.7185884,-4.0017078 c -1.7454984,2.3720609 -1.7354408,5.6174519 -6e-7,8.035443 z"
         transform="matrix(1.1,0,0,1.1,1.1,0)" />
    </marker>
    <marker
       inkscape:stockid="Arrow2Lend"
       orient="auto"
       refY="0"
       refX="0"
       id="marker8257"
       style="overflow:visible"
       inkscape:isstock="true">
      <path
         id="path8255"
         style="fill:#000000;fill-opacity:1;fill-rule:evenodd;stroke:#000000;stroke-width:0.625;stroke-linejoin:round;stroke-opacity:1"
         d="M 8.7185878,4.0337352 -2.2072895,0.01601326 8.7185884,-4.0017078 c -1.7454984,2.3720609 -1.7354408,5.6174519 -6e-7,8.035443 z"
         transform="matrix(-1.1,0,0,-1.1,-1.1,0)"
         inkscape:connector-curvature="0" />
    </marker>
    <marker
       inkscape:isstock="true"
       style="overflow:visible"
       id="marker8067"
       refX="0"
       refY="0"
       orient="auto"
       inkscape:stockid="Arrow2Lstart">
      <path
         transform="matrix(1.1,0,0,1.1,1.1,0)"
         d="M 8.7185878,4.0337352 -2.2072895,0.01601326 8.7185884,-4.0017078 c -1.7454984,2.3720609 -1.7354408,5.6174519 -6e-7,8.035443 z"
         style="fill:#000000;fill-opacity:1;fill-rule:evenodd;stroke:#000000;stroke-width:0.625;stroke-linejoin:round;stroke-opacity:1"
         id="path8065"
         inkscape:connector-curvature="0" />
    </marker>
    <marker
       inkscape:stockid="Arrow2Lstart"
       orient="auto"
       refY="0"
       refX="0"
       id="marker7079"
       style="overflow:visible"
       inkscape:isstock="true">
      <path
         inkscape:connector-curvature="0"
         id="path7077"
         style="fill:#000000;fill-opacity:1;fill-rule:evenodd;stroke:#000000;stroke-width:0.625;stroke-linejoin:round;stroke-opacity:1"
         d="M 8.7185878,4.0337352 -2.2072895,0.01601326 8.7185884,-4.0017078 c -1.7454984,2.3720609 -1.7354408,5.6174519 -6e-7,8.035443 z"
         transform="matrix(1.1,0,0,1.1,1.1,0)" />
    </marker>
    <marker
       inkscape:stockid="Arrow2Lend"
       orient="auto"
       refY="0"
       refX="0"
       id="marker6281"
       style="overflow:visible"
       inkscape:isstock="true">
      <path
         id="path6279"
         style="fill:#000000;fill-opacity:1;fill-rule:evenodd;stroke:#000000;stroke-width:0.625;stroke-linejoin:round;stroke-opacity:1"
         d="M 8.7185878,4.0337352 -2.2072895,0.01601326 8.7185884,-4.0017078 c -1.7454984,2.3720609 -1.7354408,5.6174519 -6e-7,8.035443 z"
         transform="matrix(-1.1,0,0,-1.1,-1.1,0)"
         inkscape:connector-curvature="0" />
    </marker>
    <marker
       inkscape:stockid="Arrow2Lend"
       orient="auto"
       refY="0"
       refX="0"
       id="marker5365"
       style="overflow:visible"
       inkscape:isstock="true">
      <path
         id="path5363"
         style="fill:#000000;fill-opacity:1;fill-rule:evenodd;stroke:#000000;stroke-width:0.625;stroke-linejoin:round;stroke-opacity:1"
         d="M 8.7185878,4.0337352 -2.2072895,0.01601326 8.7185884,-4.0017078 c -1.7454984,2.3720609 -1.7354408,5.6174519 -6e-7,8.035443 z"
         transform="matrix(-1.1,0,0,-1.1,-1.1,0)"
         inkscape:connector-curvature="0" />
    </marker>
    <marker
       inkscape:isstock="true"
       style="overflow:visible"
       id="marker2269"
       refX="0"
       refY="0"
       orient="auto"
       inkscape:stockid="Arrow2Lend">
      <path
         inkscape:connector-curvature="0"
         transform="matrix(-1.1,0,0,-1.1,-1.1,0)"
         d="M 8.7185878,4.0337352 -2.2072895,0.01601326 8.7185884,-4.0017078 c -1.7454984,2.3720609 -1.7354408,5.6174519 -6e-7,8.035443 z"
         style="fill:#000000;fill-opacity:1;fill-rule:evenodd;stroke:#000000;stroke-width:0.625;stroke-linejoin:round;stroke-opacity:1"
         id="path2267" />
    </marker>
    <marker
       inkscape:stockid="Arrow2Lend"
       orient="auto"
       refY="0"
       refX="0"
       id="marker2125"
       style="overflow:visible"
       inkscape:isstock="true">
      <path
         id="path2123"
         style="fill:#000000;fill-opacity:1;fill-rule:evenodd;stroke:#000000;stroke-width:0.625;stroke-linejoin:round;stroke-opacity:1"
         d="M 8.7185878,4.0337352 -2.2072895,0.01601326 8.7185884,-4.0017078 c -1.7454984,2.3720609 -1.7354408,5.6174519 -6e-7,8.035443 z"
         transform="matrix(-1.1,0,0,-1.1,-1.1,0)"
         inkscape:connector-curvature="0" />
    </marker>
    <marker
       inkscape:isstock="true"
       style="overflow:visible"
       id="marker1192"
       refX="0"
       refY="0"
       orient="auto"
       inkscape:stockid="Arrow2Lend">
      <path
         inkscape:connector-curvature="0"
         transform="matrix(-1.1,0,0,-1.1,-1.1,0)"
         d="M 8.7185878,4.0337352 -2.2072895,0.01601326 8.7185884,-4.0017078 c -1.7454984,2.3720609 -1.7354408,5.6174519 -6e-7,8.035443 z"
         style="fill:#000000;fill-opacity:1;fill-rule:evenodd;stroke:#000000;stroke-width:0.625;stroke-linejoin:round;stroke-opacity:1"
         id="path1190" />
    </marker>
    <marker
       inkscape:stockid="Arrow2Lend"
       orient="auto"
       refY="0"
       refX="0"
       id="marker4909"
       style="overflow:visible"
       inkscape:isstock="true">
      <path
         id="path4907"
         style="fill:#000000;fill-opacity:1;fill-rule:evenodd;stroke:#000000;stroke-width:0.625;stroke-linejoin:round;stroke-opacity:1"
         d="M 8.7185878,4.0337352 -2.2072895,0.01601326 8.7185884,-4.0017078 c -1.7454984,2.3720609 -1.7354408,5.6174519 -6e-7,8.035443 z"
         transform="matrix(-1.1,0,0,-1.1,-1.1,0)"
         inkscape:connector-curvature="0" />
    </marker>
    <marker
       inkscape:stockid="Arrow2Lstart"
       orient="auto"
       refY="0"
       refX="0"
       id="marker4809"
       style="overflow:visible"
       inkscape:isstock="true">
      <path
         id="path4807"
         style="fill:#000000;fill-opacity:1;fill-rule:evenodd;stroke:#000000;stroke-width:0.625;stroke-linejoin:round;stroke-opacity:1"
         d="M 8.7185878,4.0337352 -2.2072895,0.01601326 8.7185884,-4.0017078 c -1.7454984,2.3720609 -1.7354408,5.6174519 -6e-7,8.035443 z"
         transform="matrix(1.1,0,0,1.1,1.1,0)"
         inkscape:connector-curvature="0" />
    </marker>
    <marker
       inkscape:isstock="true"
       style="overflow:visible"
       id="marker4313"
       refX="0"
       refY="0"
       orient="auto"
       inkscape:stockid="Arrow2Lend">
      <path
         transform="matrix(-1.1,0,0,-1.1,-1.1,0)"
         d="M 8.7185878,4.0337352 -2.2072895,0.01601326 8.7185884,-4.0017078 c -1.7454984,2.3720609 -1.7354408,5.6174519 -6e-7,8.035443 z"
         style="fill:#000000;fill-opacity:1;fill-rule:evenodd;stroke:#000000;stroke-width:0.625;stroke-linejoin:round;stroke-opacity:1"
         id="path4311"
         inkscape:connector-curvature="0" />
    </marker>
    <marker
       inkscape:stockid="Arrow2Lend"
       orient="auto"
       refY="0"
       refX="0"
       id="marker4033"
       style="overflow:visible"
       inkscape:isstock="true">
      <path
         id="path4031"
         style="fill:#000000;fill-opacity:1;fill-rule:evenodd;stroke:#000000;stroke-width:0.625;stroke-linejoin:round;stroke-opacity:1"
         d="M 8.7185878,4.0337352 -2.2072895,0.01601326 8.7185884,-4.0017078 c -1.7454984,2.3720609 -1.7354408,5.6174519 -6e-7,8.035443 z"
         transform="matrix(-1.1,0,0,-1.1,-1.1,0)"
         inkscape:connector-curvature="0" />
    </marker>
    <marker
       inkscape:stockid="Arrow2Lend"
       orient="auto"
       refY="0"
       refX="0"
       id="marker2433"
       style="overflow:visible"
       inkscape:isstock="true">
      <path
         id="path2431"
         style="fill:#000000;fill-opacity:1;fill-rule:evenodd;stroke:#000000;stroke-width:0.625;stroke-linejoin:round;stroke-opacity:1"
         d="M 8.7185878,4.0337352 -2.2072895,0.01601326 8.7185884,-4.0017078 c -1.7454984,2.3720609 -1.7354408,5.6174519 -6e-7,8.035443 z"
         transform="matrix(-1.1,0,0,-1.1,-1.1,0)"
         inkscape:connector-curvature="0" />
    </marker>
    <marker
       inkscape:stockid="Arrow2Lstart"
       orient="auto"
       refY="0"
       refX="0"
       id="marker2381"
       style="overflow:visible"
       inkscape:isstock="true">
      <path
         id="path2379"
         style="fill:#000000;fill-opacity:1;fill-rule:evenodd;stroke:#000000;stroke-width:0.625;stroke-linejoin:round;stroke-opacity:1"
         d="M 8.7185878,4.0337352 -2.2072895,0.01601326 8.7185884,-4.0017078 c -1.7454984,2.3720609 -1.7354408,5.6174519 -6e-7,8.035443 z"
         transform="matrix(1.1,0,0,1.1,1.1,0)"
         inkscape:connector-curvature="0" />
    </marker>
    <marker
       inkscape:isstock="true"
       style="overflow:visible"
       id="marker1589"
       refX="0"
       refY="0"
       orient="auto"
       inkscape:stockid="Arrow2Lend">
      <path
         transform="matrix(-1.1,0,0,-1.1,-1.1,0)"
         d="M 8.7185878,4.0337352 -2.2072895,0.01601326 8.7185884,-4.0017078 c -1.7454984,2.3720609 -1.7354408,5.6174519 -6e-7,8.035443 z"
         style="fill:#000000;fill-opacity:1;fill-rule:evenodd;stroke:#000000;stroke-width:0.625;stroke-linejoin:round;stroke-opacity:1"
         id="path1587"
         inkscape:connector-curvature="0" />
    </marker>
    <pattern
       y="0"
       x="0"
       height="6"
       width="6"
       patternUnits="userSpaceOnUse"
       id="EMFhbasepattern" />
    <linearGradient
       inkscape:collect="always"
       id="linearGradient2188">
      <stop
         style="stop-color:#d18a97;stop-opacity:1"
         offset="0"
         id="stop2184" />
      <stop
         style="stop-color:#a2142f;stop-opacity:0;"
         offset="1"
         id="stop2186" />
    </linearGradient>
    <linearGradient
       inkscape:collect="always"
       xlink:href="#linearGradient2188"
       id="linearGradient2244-7"
       gradientUnits="userSpaceOnUse"
       gradientTransform="matrix(-0.03452034,0.57465541,-0.58040365,-0.03486565,2244.9543,-802.34756)"
       x1="1745.806"
       y1="172.76936"
       x2="1795.1287"
       y2="201.33716" />
    <linearGradient
       inkscape:collect="always"
       xlink:href="#linearGradient2188"
       id="linearGradient2190"
       x1="1745.806"
       y1="172.76936"
       x2="1795.1287"
       y2="201.33716"
       gradientUnits="userSpaceOnUse"
       gradientTransform="translate(0,80.839658)" />
    <marker
       inkscape:isstock="true"
       style="overflow:visible"
       id="marker3253"
       refX="0"
       refY="0"
       orient="auto"
       inkscape:stockid="Arrow2Lstart">
      <path
         inkscape:connector-curvature="0"
         transform="matrix(1.1,0,0,1.1,1.1,0)"
         d="M 8.7185878,4.0337352 -2.2072895,0.01601326 8.7185884,-4.0017078 c -1.7454984,2.3720609 -1.7354408,5.6174519 -6e-7,8.035443 z"
         style="fill:#000000;fill-opacity:1;fill-rule:evenodd;stroke:#000000;stroke-width:0.625;stroke-linejoin:round;stroke-opacity:1"
         id="path3251" />
    </marker>
    <marker
       inkscape:isstock="true"
       style="overflow:visible"
       id="marker3347"
       refX="0"
       refY="0"
       orient="auto"
       inkscape:stockid="Arrow2Lend">
      <path
         inkscape:connector-curvature="0"
         transform="matrix(-1.1,0,0,-1.1,-1.1,0)"
         d="M 8.7185878,4.0337352 -2.2072895,0.01601326 8.7185884,-4.0017078 c -1.7454984,2.3720609 -1.7354408,5.6174519 -6e-7,8.035443 z"
         style="fill:#000000;fill-opacity:1;fill-rule:evenodd;stroke:#000000;stroke-width:0.625;stroke-linejoin:round;stroke-opacity:1"
         id="path3345" />
    </marker>
    <marker
       inkscape:stockid="Arrow2Lstart"
       orient="auto"
       refY="0"
       refX="0"
       id="marker4809-2"
       style="overflow:visible"
       inkscape:isstock="true"
       inkscape:collect="always">
      <path
         id="path4807-5"
         style="fill:#000000;fill-opacity:1;fill-rule:evenodd;stroke:#000000;stroke-width:0.625;stroke-linejoin:round;stroke-opacity:1"
         d="M 8.7185878,4.0337352 -2.2072895,0.01601326 8.7185884,-4.0017078 c -1.7454984,2.3720609 -1.7354408,5.6174519 -6e-7,8.035443 z"
         transform="matrix(1.1,0,0,1.1,1.1,0)"
         inkscape:connector-curvature="0" />
    </marker>
    <marker
       inkscape:stockid="Arrow2Lend"
       orient="auto"
       refY="0"
       refX="0"
       id="marker4909-9"
       style="overflow:visible"
       inkscape:isstock="true"
       inkscape:collect="always">
      <path
         id="path4907-5"
         style="fill:#000000;fill-opacity:1;fill-rule:evenodd;stroke:#000000;stroke-width:0.625;stroke-linejoin:round;stroke-opacity:1"
         d="M 8.7185878,4.0337352 -2.2072895,0.01601326 8.7185884,-4.0017078 c -1.7454984,2.3720609 -1.7354408,5.6174519 -6e-7,8.035443 z"
         transform="matrix(-1.1,0,0,-1.1,-1.1,0)"
         inkscape:connector-curvature="0" />
    </marker>
  </defs>
  <sodipodi:namedview
     id="base"
     pagecolor="#ffffff"
     bordercolor="#666666"
     borderopacity="1.0"
     inkscape:pageopacity="0.0"
     inkscape:pageshadow="2"
     inkscape:zoom="1.4"
     inkscape:cx="534.28676"
     inkscape:cy="326.48579"
     inkscape:document-units="mm"
     inkscape:current-layer="layer2"
     showgrid="false"
     showguides="true"
     inkscape:guide-bbox="true"
     inkscape:snap-bbox="true"
     inkscape:snap-bbox-midpoints="true"
     inkscape:snap-bbox-edge-midpoints="true"
     inkscape:object-paths="true"
     inkscape:window-width="2560"
     inkscape:window-height="1417"
     inkscape:window-x="2552"
     inkscape:window-y="-8"
     inkscape:window-maximized="1"
     inkscape:snap-object-midpoints="false"
     inkscape:snap-smooth-nodes="true"
     fit-margin-top="0"
     fit-margin-left="0"
     fit-margin-right="0"
     fit-margin-bottom="0"
     inkscape:snap-global="true" />
  <metadata
     id="metadata5">
    <rdf:RDF>
      <cc:Work
         rdf:about="">
        <dc:format>image/svg+xml</dc:format>
        <dc:type
           rdf:resource="http://purl.org/dc/dcmitype/StillImage" />
        <dc:title></dc:title>
      </cc:Work>
    </rdf:RDF>
  </metadata>
  <g
     inkscape:label="Layer 1"
     inkscape:groupmode="layer"
     id="layer1"
     transform="translate(-1766.1917,-494.13501)"
     style="display:inline;opacity:0.25899999" />
  <g
     inkscape:groupmode="layer"
     id="layer5"
     inkscape:label="largesep"
     style="display:none"
     transform="translate(47.321225,-30.413576)">
    <g
       style="display:inline"
       id="g2232"
       transform="matrix(0,1,1,0,-144.32406,-1689.7557)">
      <path
         style="fill:url(#linearGradient2190);fill-opacity:1;stroke:none;stroke-width:2;stroke-linecap:round;stroke-linejoin:miter;stroke-miterlimit:4;stroke-dasharray:none;stroke-opacity:1"
         d="m 1732.8435,214.45256 c 0,0 1.5302,34.66503 7.4332,50.68958 2.6991,7.32717 7.6224,13.70567 12.4491,19.84375 12.3104,15.65525 41.696,42.7919 41.696,42.7919 l 0.7739,-49.92409 z"
         id="path2182"
         inkscape:connector-curvature="0"
         sodipodi:nodetypes="caac" />
      <path
         sodipodi:nodetypes="caac"
         inkscape:connector-curvature="0"
         id="path2180"
         d="m 1732.8435,214.45256 c 0,0 1.5302,34.66503 7.4332,50.68958 2.6991,7.32717 7.663,13.67396 12.4491,19.84375 13.3572,17.21894 45.0033,47.42211 45.0033,47.42211"
         style="fill:none;stroke:#000000;stroke-width:2;stroke-linecap:round;stroke-linejoin:miter;stroke-miterlimit:4;stroke-dasharray:none;stroke-opacity:1" />
      <path
         sodipodi:nodetypes="caaac"
         inkscape:connector-curvature="0"
         id="path2192"
         d="m 1737.4401,239.87559 c 0,0 3.3535,9.68831 6.9782,13.02213 3.4917,3.21157 10.3873,1.73375 13.0618,5.6521 2.0614,3.02018 -1.8539,8.07473 0.3886,10.96298 4.0191,5.17641 18.8628,5.54341 18.8628,5.54341"
         style="fill:none;stroke:#000000;stroke-width:0.26458332px;stroke-linecap:butt;stroke-linejoin:miter;stroke-opacity:1" />
      <path
         style="fill:none;stroke:#000000;stroke-width:0.26458332px;stroke-linecap:butt;stroke-linejoin:miter;stroke-opacity:1"
         d="m 1791.5399,310.48596 c 0,0 -3.3535,-9.68831 -6.9782,-13.02213 -3.4917,-3.21157 -10.3873,-1.73375 -13.0618,-5.6521 -2.0614,-3.02018 1.8539,-8.07473 -0.3886,-10.96298 -4.0191,-5.17641 -18.8628,-5.54341 -18.8628,-5.54341"
         id="path2194"
         inkscape:connector-curvature="0"
         sodipodi:nodetypes="caaac" />
    </g>
  </g>
  <g
     inkscape:groupmode="layer"
     id="layer3"
     inkscape:label="smallsep"
     style="display:none"
     transform="translate(47.321225,-30.413576)">
    <g
       style="display:inline"
       id="g1575"
       transform="matrix(-1,0,0,1,2181.8075,-144.40019)">
      <path
         sodipodi:nodetypes="caac"
         inkscape:connector-curvature="0"
         id="path2234-8"
         d="m 2107.5865,188.78184 c 0,0 -20.1725,-0.32928 -29.677,2.50421 -4.3459,1.29558 -8.218,3.90239 -11.9471,6.46207 -9.5114,6.52841 -26.276,22.46887 -26.276,22.46887 l 28.9494,2.18536 z"
         style="fill:url(#linearGradient2244-7);fill-opacity:1;stroke:none;stroke-width:1.99999988;stroke-linecap:round;stroke-linejoin:miter;stroke-miterlimit:4;stroke-dasharray:none;stroke-opacity:1" />
      <path
         style="fill:none;stroke:#000000;stroke-width:1.99999988;stroke-linecap:round;stroke-linejoin:miter;stroke-miterlimit:4;stroke-dasharray:none;stroke-opacity:1"
         d="m 2111.679,187.48799 c 0,0 -22.9611,0.40827 -33.7695,3.79806 -4.3201,1.3549 -8.201,3.92683 -11.9471,6.46207 -10.4551,7.07544 -29.0775,24.20799 -29.0775,24.20799"
         id="path2236-8"
         inkscape:connector-curvature="0"
         sodipodi:nodetypes="caac" />
      <path
         sodipodi:nodetypes="caaac"
         inkscape:connector-curvature="0"
         id="path2240-2"
         d="m 2049.8222,218.40783 c 0,0 5.7388,-1.58932 7.7989,-3.55603 1.9846,-1.89456 1.3649,-5.90867 3.7314,-7.30897 1.8241,-1.0793 4.6226,1.34688 6.3764,0.15892 3.1431,-2.12912 3.8686,-10.64634 3.8686,-10.64634"
         style="fill:none;stroke:#000000;stroke-width:0.26458332px;stroke-linecap:butt;stroke-linejoin:miter;stroke-opacity:1" />
    </g>
  </g>
  <g
     inkscape:groupmode="layer"
     id="layer2"
     inkscape:label="Layer 2"
     transform="translate(-1766.1917,-247.13501)"
     style="display:inline">
    <path
       style="fill:none;stroke:#999999;stroke-width:0.69999999;stroke-linecap:butt;stroke-linejoin:miter;stroke-miterlimit:4;stroke-dasharray:4.2, 1.4;stroke-dashoffset:0;stroke-opacity:1"
       d="M 2034.0064,258.7927 H 1766.1917"
       id="path1060"
       inkscape:connector-curvature="0"
       sodipodi:nodetypes="cc" />
    <path
       inkscape:connector-curvature="0"
       id="path1058"
       d="M 2034.0064,331.87574 H 1766.1917"
       style="fill:none;stroke:#999999;stroke-width:0.69999999;stroke-linecap:butt;stroke-linejoin:miter;stroke-miterlimit:4;stroke-dasharray:4.2, 1.4;stroke-dashoffset:0;stroke-opacity:1"
       sodipodi:nodetypes="cc" />
    <path
       sodipodi:nodetypes="cczccaac"
       inkscape:connector-curvature="0"
       id="path1050"
       d="m 1878.2292,268.32945 c -5.8443,-5.753 -1.9952,-10.6616 5.4122,-9.0872 10.1671,2.802 17.7559,6.9769 25.6579,13.6308 7.9019,6.6539 18.6373,16.6289 25.6578,27.5287 5.8089,9.3853 8.1763,20.3901 11.0917,31.137 0,0 -13.2957,-18.7623 -21.3815,-26.8606 -8.2972,-8.31 -18.2647,-14.7667 -27.5288,-21.983 -6.2448,-4.8644 -18.9093,-14.3657 -18.9093,-14.3657 z"
       style="fill:#999999;fill-opacity:1;stroke:#000000;stroke-width:1;stroke-linecap:round;stroke-linejoin:round;stroke-miterlimit:4;stroke-dasharray:none;stroke-opacity:1" />
    <text
       xml:space="preserve"
       style="font-style:normal;font-variant:normal;font-weight:normal;font-stretch:normal;font-size:2.11666656px;line-height:1.25;font-family:sans-serif;-inkscape-font-specification:'sans-serif, Normal';font-variant-ligatures:normal;font-variant-caps:normal;font-variant-numeric:normal;font-feature-settings:normal;text-align:center;letter-spacing:0px;word-spacing:0px;writing-mode:lr-tb;text-anchor:middle;fill:#000000;fill-opacity:1;stroke:none;stroke-width:0.26458332"
       x="60.73172"
       y="-1928.5322"
       id="text7807"
       transform="rotate(90)"><tspan
         sodipodi:role="line"
         id="tspan7805"
         x="60.73172"
         y="-1926.6011"
         style="stroke-width:0.26458332" /></text>
    <path
       style="fill:#999999;fill-opacity:1;stroke:#000000;stroke-width:1;stroke-linecap:round;stroke-linejoin:round;stroke-miterlimit:4;stroke-dasharray:none;stroke-opacity:1"
       d="m 1794.7485,268.32945 c -5.8443,-5.753 -1.9952,-10.6616 5.4122,-9.0872 10.1672,2.802 17.756,6.9769 25.6579,13.6308 7.902,6.6539 18.6373,16.6289 25.6579,27.5287 5.8089,9.3853 8.1762,20.3901 11.0917,31.137 0,0 -13.2958,-18.7623 -21.3816,-26.8606 -8.2971,-8.31 -18.2646,-14.7667 -27.5287,-21.983 -6.2448,-4.8644 -18.9094,-14.3657 -18.9094,-14.3657 z"
       id="path11079"
       inkscape:connector-curvature="0"
       sodipodi:nodetypes="cczccaac" />
    <circle
       r="19.536243"
       cy="-1860.2053"
       cx="278.31082"
       id="circle11081"
       style="opacity:1;fill:none;fill-opacity:1;stroke:#eb811b;stroke-width:1;stroke-linecap:round;stroke-linejoin:round;stroke-miterlimit:4;stroke-dasharray:none;stroke-dashoffset:0;stroke-opacity:1;paint-order:normal"
       transform="rotate(90)" />
    <circle
       style="opacity:1;fill:none;fill-opacity:1;stroke:#7cc4f0;stroke-width:0.80000001;stroke-linecap:round;stroke-linejoin:round;stroke-miterlimit:4;stroke-dasharray:none;stroke-dashoffset:0;stroke-opacity:1;paint-order:normal"
       id="circle11083"
       cx="294.76529"
       cy="-1874.8291"
       r="22.442799"
       transform="rotate(90)" />
    <path
       d="m 343.68503,-1865.5203 a 36.049938,36.049938 0 0 1 -41.11625,-12.5744 36.049938,36.049938 0 0 1 0.16627,-42.9958 36.049938,36.049938 0 0 1 41.21227,-12.2561"
       sodipodi:open="true"
       sodipodi:end="5.0622636"
       sodipodi:start="1.2286557"
       sodipodi:ry="36.049938"
       sodipodi:rx="36.049938"
       sodipodi:cy="-1899.4807"
       sodipodi:cx="331.59012"
       sodipodi:type="arc"
       style="opacity:1;fill:none;fill-opacity:1;stroke:#7cc4f0;stroke-width:0.80000001;stroke-linecap:round;stroke-linejoin:round;stroke-miterlimit:4;stroke-dasharray:none;stroke-dashoffset:0;stroke-opacity:1;paint-order:normal"
       id="path11085"
       transform="rotate(90)" />
    <path
       d="m 248.87809,-1872.0881 a 24.852398,24.852398 0 0 1 30.1659,6.3517 24.852398,24.852398 0 0 1 0.77836,30.8175 24.852398,24.852398 0 0 1 -29.80679,7.8664"
       sodipodi:open="true"
       sodipodi:end="1.9817744"
       sodipodi:start="4.2509074"
       sodipodi:ry="24.852398"
       sodipodi:rx="24.852398"
       sodipodi:cy="-1849.8354"
       sodipodi:cx="259.94424"
       sodipodi:type="arc"
       id="path11087"
       style="opacity:1;fill:none;fill-opacity:1;stroke:#7cc4f0;stroke-width:0.80000001;stroke-linecap:round;stroke-linejoin:round;stroke-miterlimit:4;stroke-dasharray:none;stroke-dashoffset:0;stroke-opacity:1;paint-order:normal"
       transform="rotate(90)" />
    <circle
       r="29.610569"
       cy="-1889.2131"
       cx="314.49478"
       id="circle11799"
       style="opacity:1;fill:none;fill-opacity:1;stroke:#7cc4f0;stroke-width:0.80000001;stroke-linecap:round;stroke-linejoin:round;stroke-miterlimit:4;stroke-dasharray:none;stroke-dashoffset:0;stroke-opacity:1;paint-order:normal"
       transform="rotate(90)" />
    <path
       sodipodi:nodetypes="csc"
       inkscape:connector-curvature="0"
       id="path10317"
       d="m 1869.6089,257.86875 c 29.6106,14.8858 56.3059,30.5456 76.4877,73.8561 0.9231,1.9808 1.635,4.6478 2.1772,7.0051"
       style="fill:none;stroke:#737373;stroke-width:0.2;stroke-linecap:butt;stroke-linejoin:miter;stroke-miterlimit:4;stroke-dasharray:1.59999999, 1.59999999;stroke-dashoffset:0;stroke-opacity:1" />
    <path
       style="fill:none;stroke:#737373;stroke-width:0.2;stroke-linecap:butt;stroke-linejoin:miter;stroke-miterlimit:4;stroke-dasharray:1.59999999, 1.59999999;stroke-dashoffset:0;stroke-opacity:1"
       d="m 1791.004,260.34515 c 27.6619,14.2223 52.5441,30.4597 71.612,71.3797 0.923,1.9808 1.635,4.6478 2.1771,7.0051"
       id="path11089"
       inkscape:connector-curvature="0"
       sodipodi:nodetypes="csc" />
    <path
       style="fill:#999999;fill-opacity:1;stroke:#000000;stroke-width:1;stroke-linecap:round;stroke-linejoin:round;stroke-miterlimit:4;stroke-dasharray:none;stroke-opacity:1"
       d="m 1961.7099,268.32945 c -5.8443,-5.753 -1.9952,-10.6616 5.4122,-9.0872 10.1671,2.802 17.7559,6.9769 25.6579,13.6308 7.9019,6.6539 18.6373,16.6289 25.6578,27.5287 5.8089,9.3853 8.1763,20.3901 11.0917,31.137 0,0 -13.2957,-18.7623 -21.3815,-26.8606 -8.2972,-8.31 -18.2647,-14.7667 -27.5288,-21.983 -6.2448,-4.8644 -18.9093,-14.3657 -18.9093,-14.3657 z"
       id="path1512"
       inkscape:connector-curvature="0"
       sodipodi:nodetypes="cczccaac" />
    <path
       style="fill:none;stroke:#737373;stroke-width:0.2;stroke-linecap:butt;stroke-linejoin:miter;stroke-miterlimit:4;stroke-dasharray:1.59999999, 1.59999999;stroke-dashoffset:0;stroke-opacity:1"
       d="m 1953.0896,257.86875 c 29.6106,14.8858 56.3059,30.5456 76.4877,73.8561 0.9231,1.9808 1.635,4.6478 2.1772,7.0051"
       id="path1516"
       inkscape:connector-curvature="0"
       sodipodi:nodetypes="csc" />
    <text
       xml:space="preserve"
       style="font-style:normal;font-variant:normal;font-weight:normal;font-stretch:normal;font-size:3.40268874px;line-height:1.25;font-family:sans-serif;-inkscape-font-specification:'sans-serif, Normal';font-variant-ligatures:normal;font-variant-caps:normal;font-variant-numeric:normal;font-feature-settings:normal;text-align:center;letter-spacing:0px;word-spacing:0px;writing-mode:lr-tb;text-anchor:middle;fill:#000000;fill-opacity:1;stroke:none;stroke-width:0.12760083"
       x="1778.3069"
       y="262.47894"
       id="text1168"><tspan
         sodipodi:role="line"
         id="tspan1166"
         x="1778.3069"
         y="262.47894"
         style="font-style:normal;font-variant:normal;font-weight:normal;font-stretch:normal;font-size:3.40268874px;font-family:sans-serif;-inkscape-font-specification:'sans-serif, Normal';font-variant-ligatures:normal;font-variant-caps:normal;font-variant-numeric:normal;font-feature-settings:normal;text-align:center;writing-mode:lr-tb;text-anchor:middle;stroke-width:0.12760083">\circnum{1}</tspan></text>
    <text
       id="text1172"
       y="335.14243"
       x="1778.2856"
       style="font-style:normal;font-variant:normal;font-weight:normal;font-stretch:normal;font-size:2.55971956px;line-height:1.25;font-family:sans-serif;-inkscape-font-specification:'sans-serif, Normal';font-variant-ligatures:normal;font-variant-caps:normal;font-variant-numeric:normal;font-feature-settings:normal;text-align:center;letter-spacing:0px;word-spacing:0px;writing-mode:lr-tb;text-anchor:middle;fill:#000000;fill-opacity:1;stroke:none;stroke-width:0.09598949"
       xml:space="preserve"><tspan
         style="font-style:normal;font-variant:normal;font-weight:normal;font-stretch:normal;font-size:2.55971956px;font-family:sans-serif;-inkscape-font-specification:'sans-serif, Normal';font-variant-ligatures:normal;font-variant-caps:normal;font-variant-numeric:normal;font-feature-settings:normal;text-align:center;writing-mode:lr-tb;text-anchor:middle;stroke-width:0.09598949"
         y="335.14243"
         x="1778.2856"
         id="tspan1170"
         sodipodi:role="line">\circnum{2}</tspan></text>
  </g>
  <g
     inkscape:groupmode="layer"
     id="layer4"
     inkscape:label="solidity"
     transform="translate(-0.8018,8.7198224)"
     style="display:none">
    <path
       style="fill:none;stroke:#000000;stroke-width:0.26458332px;stroke-linecap:round;stroke-linejoin:miter;stroke-opacity:1"
       d="M 198.56597,3.1016425 V -8.5856466"
       id="path1468"
       inkscape:connector-curvature="0"
       sodipodi:nodetypes="cc" />
    <path
       sodipodi:nodetypes="cc"
       inkscape:connector-curvature="0"
       id="path3189"
       d="m 194.54067,4.0702741 -9.80943,9.8164989"
       style="fill:none;stroke:#000000;stroke-width:0.26458332px;stroke-linecap:round;stroke-linejoin:miter;stroke-opacity:1" />
    <path
       sodipodi:nodetypes="cc"
       inkscape:connector-curvature="0"
       id="path3197"
       d="M 114.84379,3.1164665 V -8.5856466"
       style="fill:none;stroke:#000000;stroke-width:0.26458332px;stroke-linecap:round;stroke-linejoin:miter;stroke-opacity:1" />
    <path
       sodipodi:nodetypes="cc"
       inkscape:connector-curvature="0"
       id="path3193"
       d="M 260.63992,78.96176 186.39002,12.867828"
       style="fill:none;stroke:#000000;stroke-width:0.26458332px;stroke-linecap:round;stroke-linejoin:miter;stroke-opacity:1;marker-start:url(#marker3253);marker-end:url(#marker3347)" />
    <path
       inkscape:connector-curvature="0"
       id="path3201"
       d="M 197.96461,-5.7793166 H 115.5045"
       style="fill:none;stroke:#000000;stroke-width:0.26458332px;stroke-linecap:round;stroke-linejoin:miter;stroke-opacity:1;marker-start:url(#marker4809-2);marker-end:url(#marker4909-9)"
       sodipodi:nodetypes="cc" />
    <text
       xml:space="preserve"
       style="font-style:normal;font-variant:normal;font-weight:normal;font-stretch:normal;font-size:2.11666656px;line-height:1.25;font-family:sans-serif;-inkscape-font-specification:'sans-serif, Normal';font-variant-ligatures:normal;font-variant-caps:normal;font-variant-numeric:normal;font-feature-settings:normal;text-align:center;letter-spacing:0px;word-spacing:0px;writing-mode:lr-tb;text-anchor:middle;fill:#000000;fill-opacity:1;stroke:none;stroke-width:0.26458332;stroke-linecap:round"
       x="223.56819"
       y="47.522964"
       id="text3245"><tspan
         sodipodi:role="line"
         id="tspan3243"
         x="223.56819"
         y="47.522964"
         style="font-style:normal;font-variant:normal;font-weight:normal;font-stretch:normal;font-size:2.11666656px;font-family:sans-serif;-inkscape-font-specification:'sans-serif, Normal';font-variant-ligatures:normal;font-variant-caps:normal;font-variant-numeric:normal;font-feature-settings:normal;text-align:center;writing-mode:lr-tb;text-anchor:middle;stroke-width:0.26458332;stroke-linecap:round">\colorbox{bg}{\(l\)}</tspan></text>
    <text
       id="text3249"
       y="-6.5136781"
       x="169.26715"
       style="font-style:normal;font-variant:normal;font-weight:normal;font-stretch:normal;font-size:2.11666656px;line-height:1.25;font-family:sans-serif;-inkscape-font-specification:'sans-serif, Normal';font-variant-ligatures:normal;font-variant-caps:normal;font-variant-numeric:normal;font-feature-settings:normal;text-align:center;letter-spacing:0px;word-spacing:0px;writing-mode:lr-tb;text-anchor:middle;fill:#000000;fill-opacity:1;stroke:none;stroke-width:0.26458332;stroke-linecap:round"
       xml:space="preserve"><tspan
         style="stroke-width:0.26458332;stroke-linecap:round"
         y="-6.5136781"
         x="169.26715"
         id="tspan3247"
         sodipodi:role="line">\colorbox{bg}{\(s\)}</tspan></text>
    <path
       style="fill:none;stroke:#000000;stroke-width:0.26458332px;stroke-linecap:round;stroke-linejoin:miter;stroke-opacity:1"
       d="m 267.20659,73.334411 -7.56138,7.566827"
       id="path2202"
       inkscape:connector-curvature="0"
       sodipodi:nodetypes="cc" />
  </g>
</svg>
